<?xml version="1.0" standalone="no"?>
<!DOCTYPE svg PUBLIC "-//W3C//DTD SVG 20010904//EN"
 "http://www.w3.org/TR/2001/REC-SVG-20010904/DTD/svg10.dtd">
<svg version="1.0" xmlns="http://www.w3.org/2000/svg"
 width="160.000000pt" height="160.000000pt" viewBox="0 0 160.000000 160.000000"
 preserveAspectRatio="xMidYMid meet">
<metadata>
Created by potrace 1.14, written by Peter Selinger 2001-2017
</metadata>
<g transform="translate(0.000000,160.000000) scale(0.100000,-0.100000)"
fill="#000000" stroke="none">
<path d="M700 1543 c-14 -3 -52 -13 -84 -24 -52 -17 -90 -19 -297 -19 -203 0
-240 -2 -253 -16 -14 -14 -16 -71 -16 -482 0 -277 4 -473 10 -482 6 -10 32
-17 77 -20 l68 -5 1 -52 c2 -52 1 -53 -27 -53 -21 0 -32 -7 -40 -24 -6 -13
-22 -29 -35 -35 -22 -10 -29 -22 -25 -44 1 -4 -5 -15 -14 -23 -20 -21 -19 -43
4 -78 15 -22 17 -34 10 -48 -6 -11 -9 -33 -7 -51 l3 -32 654 -3 c509 -2 656 1
662 10 6 10 15 10 43 0 42 -15 56 -9 91 38 30 41 31 54 6 103 -25 49 -41 68
-52 61 -5 -3 -9 2 -9 10 0 18 -42 48 -61 44 -11 -2 -14 17 -15 90 l0 92 62 0
c44 0 67 5 78 16 14 14 16 71 16 484 0 413 -2 470 -16 484 -13 14 -51 16 -255
16 -220 0 -245 2 -302 22 -60 21 -211 32 -277 21z"/>
</g>
</svg>
